<svg width="54" height="32" viewBox="0 0 54 32" fill="none" xmlns="http://www.w3.org/2000/svg">
<path d="M28.3883 12.8259L25.9239 15.0855C22.5888 18.1442 18.7937 16.0645 17.5697 14.7329C15.36 12.3162 15.5325 8.57613 17.9312 6.37318L24.6507 0.216431H24.1085C19.3605 0.216431 14.7932 2.10291 11.4334 5.46077L3.53101 5.48543C2.08524 5.48543 0.902344 6.66828 0.902344 8.11417V21.2497C0.902344 22.6956 2.08524 23.8834 3.45708 23.8834L12.8463 23.8784L20.2805 30.604C22.5395 32.4428 25.8459 32.0926 27.6736 29.8432L29.1621 31.0967C30.4666 32.0914 32.397 31.9598 33.4649 30.6554L36.0427 27.4825L36.4841 27.8522C37.6136 28.7564 39.2672 28.5922 40.1807 27.462L40.9673 26.4895C41.8775 25.3634 41.7049 23.7153 40.5811 22.8021L28.3883 12.8259ZM50.847 5.48543L42.961 5.47509C39.5946 2.1082 35.029 0.224182 30.2694 0.224182L29.563 0.216431C28.9058 0.216431 28.2799 0.479223 27.787 0.920717L19.7137 8.29666C19.7055 8.3131 19.6973 8.32953 19.6973 8.32953C18.3172 9.62829 18.3501 11.6668 19.5166 12.9327C20.3072 13.7958 22.3917 14.7099 24.1274 13.1588C24.1274 13.1485 24.1479 13.1485 24.1582 13.1382L30.7299 7.12942C31.2638 6.64683 32.0951 6.67765 32.588 7.21162C33.0809 7.74559 33.0398 8.57778 32.5059 9.07098L30.3602 11.0331L42.3206 20.7409C43.3162 21.5622 43.9225 22.6717 44.1377 23.8628L50.847 23.8653C52.2927 23.8653 53.4756 22.6832 53.4756 21.2365V8.11582C53.4756 6.66088 52.3009 5.48543 50.847 5.48543Z" fill="#4C56CC"/>
</svg>
