<svg width="52" height="49" viewBox="0 0 52 49" fill="none" xmlns="http://www.w3.org/2000/svg">
<path d="M54.2552 32.112C53.0024 30.4114 50.6134 30.0438 48.9147 31.3033L37.485 39.7223H25.9694C25.134 39.7223 24.5275 39.03 24.5275 38.1955C24.5275 37.36 25.2198 36.6677 25.9694 36.6677H33.4411C34.883 36.6677 36.3773 35.6288 36.6275 34.1259C36.9378 32.2162 35.4702 30.5566 33.6082 30.5566H18.2474C15.7552 30.5566 13.1752 31.4399 11.17 33.0631L6.72986 36.6668L1.44184 36.5807C0.69237 36.5807 0 37.3637 0 38.1944V47.3592C0 48.2014 0.69237 48.8889 1.44184 48.8889H34.4896C36.5931 48.8889 38.6833 48.2025 40.3811 46.9534L53.2812 37.4506C55.1432 36.1988 55.5061 33.8116 54.2552 32.112V32.112ZM26.6693 16.7101C25.9436 16.605 24.9887 16.2613 24.1484 15.9557L23.6806 15.7934C22.487 15.2873 21.1788 15.9939 20.7587 17.1016C20.3385 18.2092 20.9612 19.6033 22.1518 20.0273L22.5963 20.1854C23.4066 20.4777 24.3036 20.7674 25.2117 20.9791V22.1528C25.2117 23.418 26.2362 24.4444 27.5014 24.4444C28.7666 24.4444 29.7931 23.418 29.7931 22.1528V21.1597C32.206 20.6133 33.8875 19.0734 34.195 16.7941C35.0246 12.015 30.4816 10.7155 28.0438 10.0194L27.5382 9.84462C25.0269 9.13229 25.1701 8.82483 25.237 8.43238C25.3474 7.78632 26.6979 7.47179 28.3126 7.72664C28.7841 7.80122 29.3983 7.96984 30.1889 8.24437C31.3853 8.65314 32.6916 8.0236 33.1031 6.82735C33.5147 5.6311 32.8826 4.32657 31.6861 3.91216C30.9602 3.66132 30.3569 3.49603 29.7936 3.36589V2.29167C29.7936 1.02648 28.7671 0 27.5019 0C26.2367 0 25.2122 1.02648 25.2122 2.29167V3.29618C22.8021 3.84141 21.112 5.37109 20.6345 7.6513C19.8993 12.375 24.5113 13.7309 26.2491 14.2465L26.8696 14.4256C29.8927 15.2909 29.844 15.5609 29.7666 16.0145C29.658 16.6623 28.3116 16.9774 26.6693 16.7101Z" fill="#4C56CC"/>
</svg>
