<svg width="45" height="45" viewBox="0 0 45 45" fill="none" xmlns="http://www.w3.org/2000/svg">
<path d="M17.1156 43.3723C18.9858 43.884 20.9158 44.1448 22.8548 44.1478L23.1637 44.1456C24.2707 44.1318 25.3562 43.8384 26.3194 43.2927C27.2826 42.7469 28.0922 41.9665 28.6729 41.024C29.8602 39.1051 29.9873 36.7459 29.0081 34.7153L28.5744 33.8062C27.582 31.7427 28.3619 29.8719 29.4243 28.8095C30.4867 27.7471 32.3618 26.9673 34.4188 27.9596H34.421L35.3256 28.3955C36.3205 28.8765 37.4208 29.0981 38.5242 29.0395C39.6277 28.9809 40.6984 28.644 41.6366 28.0604C42.5797 27.48 43.3606 26.6705 43.9067 25.7073C44.4529 24.7441 44.7465 23.6583 44.7604 22.5511C44.7878 20.5095 44.5274 18.4742 43.9871 16.5052C41.7133 8.12193 34.4516 1.71019 25.9238 0.547002C19.0257 -0.388364 12.2526 1.86572 7.36762 6.75284C2.48268 11.64 0.217652 18.4022 1.15959 25.309C2.32058 33.839 8.73452 41.0985 17.1156 43.3723ZM30.5218 9.09892C31.3932 9.09892 32.229 9.44511 32.8452 10.0613C33.4614 10.6775 33.8076 11.5133 33.8076 12.3848C33.8076 13.2562 33.4614 14.092 32.8452 14.7082C32.229 15.3244 31.3932 15.6706 30.5218 15.6706C29.6503 15.6706 28.8145 15.3244 28.1983 14.7082C27.5821 14.092 27.2359 13.2562 27.2359 12.3848C27.2359 11.5133 27.5821 10.6775 28.1983 10.0613C28.8145 9.44511 29.6503 9.09892 30.5218 9.09892ZM19.569 6.90837C20.4405 6.90837 21.2762 7.25455 21.8924 7.87077C22.5086 8.48698 22.8548 9.32274 22.8548 10.1942C22.8548 11.0657 22.5086 11.9014 21.8924 12.5176C21.2762 13.1338 20.4405 13.48 19.569 13.48C18.6975 13.48 17.8618 13.1338 17.2456 12.5176C16.6294 11.9014 16.2832 11.0657 16.2832 10.1942C16.2832 9.32274 16.6294 8.48698 17.2456 7.87077C17.8618 7.25455 18.6975 6.90837 19.569 6.90837ZM16.2832 29.9223C16.2832 30.7938 15.937 31.6295 15.3208 32.2458C14.7046 32.862 13.8688 33.2082 12.9973 33.2082C12.1259 33.2082 11.2901 32.862 10.6739 32.2458C10.0577 31.6295 9.71151 30.7938 9.71151 29.9223C9.71151 29.0509 10.0577 28.2151 10.6739 27.5989C11.2901 26.9827 12.1259 26.6365 12.9973 26.6365C13.8688 26.6365 14.7046 26.9827 15.3208 27.5989C15.937 28.2151 16.2832 29.0509 16.2832 29.9223ZM10.8068 15.6837C11.6785 15.684 12.5145 16.0306 13.1307 16.6472C13.7469 17.2638 14.0929 18.1 14.0926 18.9717C14.0923 19.8435 13.7457 20.6794 13.1291 21.2956C12.5125 21.9118 11.6763 22.2579 10.8046 22.2576C9.93285 22.2573 9.09692 21.9107 8.48071 21.2941C7.8645 20.6775 7.51848 19.8413 7.51877 18.9696C7.51906 18.0978 7.86564 17.2619 8.48226 16.6457C9.09888 16.0295 9.93504 15.6834 10.8068 15.6837Z" fill="#4C56CC"/>
</svg>
