<svg width="45" height="41" viewBox="0 0 45 41" fill="none" xmlns="http://www.w3.org/2000/svg">
<path d="M41.2656 0.61881L13.5244 10.5245V25.8584L15.163 26.4432L12.6942 31.3808C12.413 31.9421 12.2558 32.5573 12.2333 33.1847C12.2107 33.8121 12.3234 34.437 12.5635 35.0171C12.8037 35.5972 13.1658 36.1188 13.6253 36.5466C14.0847 36.9745 14.6308 37.2985 15.2265 37.4968L24.1727 40.4781C25.1735 40.8044 26.2579 40.7623 27.2303 40.3594C28.2028 39.9565 28.9992 39.2194 29.476 38.281L32.3303 32.5724L41.2656 35.764C41.596 35.8819 41.9499 35.9187 42.2975 35.8713C42.6451 35.8239 42.9762 35.6938 43.263 35.4918C43.5498 35.2898 43.7839 35.0218 43.9456 34.7105C44.1073 34.3992 44.1919 34.0535 44.1922 33.7027V2.68012C44.1919 2.32931 44.1073 1.9837 43.9456 1.67238C43.7839 1.36105 43.5498 1.09311 43.263 0.891098C42.9762 0.689087 42.6451 0.558913 42.2975 0.511529C41.9499 0.464146 41.596 0.500938 41.2656 0.61881ZM25.5571 36.3226L16.6131 33.3413L19.3184 27.9284L28.1726 31.0916L25.5571 36.3226V36.3226ZM4.76221 25.8584H9.14332V10.5245H4.76221C2.34603 10.5245 0.381104 12.4894 0.381104 14.9056V21.4773C0.381104 23.8934 2.34603 25.8584 4.76221 25.8584Z" fill="white"/>
</svg>
