<svg width="45" height="41" viewBox="0 0 45 41" fill="none" xmlns="http://www.w3.org/2000/svg">
<path d="M41.5007 0.574438L13.7595 10.4801V25.814L15.3981 26.3989L12.9293 31.3364C12.6481 31.8977 12.4909 32.5129 12.4684 33.1403C12.4458 33.7677 12.5585 34.3927 12.7986 34.9727C13.0388 35.5528 13.4009 36.0744 13.8604 36.5023C14.3198 36.9301 14.8659 37.2541 15.4616 37.4524L24.4078 40.4338C25.4086 40.76 26.493 40.7179 27.4654 40.315C28.4379 39.9122 29.2343 39.175 29.7111 38.2366L32.5654 32.528L41.5007 35.7197C41.8311 35.8376 42.185 35.8743 42.5326 35.827C42.8802 35.7796 43.2113 35.6494 43.4981 35.4474C43.7849 35.2454 44.019 34.9774 44.1807 34.6661C44.3424 34.3548 44.427 34.0092 44.4273 33.6584V2.63575C44.427 2.28494 44.3424 1.93933 44.1807 1.628C44.019 1.31668 43.7849 1.04874 43.4981 0.846725C43.2113 0.644714 42.8802 0.51454 42.5326 0.467157C42.185 0.419773 41.8311 0.456565 41.5007 0.574438ZM25.7922 36.2783L16.8482 33.2969L19.5535 27.8841L28.4078 31.0472L25.7922 36.2783ZM4.99732 25.814H9.37842V10.4801H4.99732C2.58114 10.4801 0.616211 12.445 0.616211 14.8612V21.4329C0.616211 23.8491 2.58114 25.814 4.99732 25.814Z" fill="#4C56CC"/>
</svg>
