<svg width="53" height="53" viewBox="0 0 53 53" fill="none" xmlns="http://www.w3.org/2000/svg">
<path d="M26.2867 30.3939C25.6368 30.3939 25.0015 30.2012 24.4611 29.8401C23.9208 29.479 23.4996 28.9659 23.2509 28.3655C23.0022 27.7651 22.9372 27.1044 23.064 26.467C23.1907 25.8296 23.5037 25.2441 23.9632 24.7846C24.4228 24.3251 25.0082 24.0121 25.6456 23.8853C26.283 23.7586 26.9437 23.8236 27.5441 24.0723C28.1445 24.321 28.6577 24.7422 29.0187 25.2825C29.3798 25.8229 29.5725 26.4582 29.5725 27.108C29.5725 27.9795 29.2263 28.8153 28.6101 29.4315C27.9939 30.0477 27.1581 30.3939 26.2867 30.3939V30.3939ZM44.5846 28.8536L29.4082 49.4517C29.3047 49.5896 29.1605 49.6915 28.996 49.7429C28.8314 49.7943 28.6548 49.7926 28.4913 49.7381C28.3277 49.6836 28.1854 49.579 28.0846 49.4391C27.9838 49.2993 27.9296 49.1312 27.9296 48.9588V33.4743C29.4783 33.0745 30.828 32.1235 31.7257 30.7996C32.6234 29.4758 33.0075 27.87 32.8059 26.2833C32.6044 24.6965 31.8311 23.2378 30.6309 22.1804C29.4307 21.123 27.8862 20.5397 26.2867 20.5397C24.6872 20.5397 23.1426 21.123 21.9424 22.1804C20.7422 23.2378 19.9689 24.6965 19.7674 26.2833C19.5658 27.87 19.9499 29.4758 20.8476 30.7996C21.7453 32.1235 23.095 33.0745 24.6437 33.4743V48.9588C24.6437 49.1312 24.5895 49.2993 24.4887 49.4391C24.3879 49.579 24.2456 49.6836 24.082 49.7381C23.9185 49.7926 23.7419 49.7943 23.5773 49.7429C23.4128 49.6915 23.2686 49.5896 23.1651 49.4517L7.98869 28.8536C7.63118 28.3676 7.41348 27.793 7.35918 27.1921C7.30488 26.5912 7.41605 25.9868 7.68064 25.4446L13.1433 14.396V6.5716C13.1433 5.70014 13.4895 4.86438 14.1057 4.24816C14.7219 3.63195 15.5577 3.28577 16.4292 3.28577H36.1441C37.0156 3.28577 37.8514 3.63195 38.4676 4.24816C39.0838 4.86438 39.43 5.70014 39.43 6.5716V14.396L44.8927 25.4446C45.1573 25.9868 45.2684 26.5912 45.2141 27.1921C45.1598 27.793 44.9421 28.3676 44.5846 28.8536V28.8536ZM36.1441 6.5716H16.4292V13.1433H36.1441V6.5716Z" fill="#4C56CC"/>
</svg>
