<svg width="23" height="22" viewBox="0 0 23 22" fill="none" xmlns="http://www.w3.org/2000/svg">
<path d="M16.1178 15.5336L20.7177 19.9282L16.1178 15.5336ZM2.31836 9.88339C2.31836 10.8727 2.52232 11.8524 2.9186 12.7664C3.31488 13.6804 3.89572 14.5109 4.62794 15.2105C5.36017 15.91 6.22945 16.465 7.18616 16.8436C8.14286 17.2222 9.16825 17.417 10.2038 17.417C11.2393 17.417 12.2647 17.2222 13.2214 16.8436C14.1781 16.465 15.0474 15.91 15.7796 15.2105C16.5118 14.5109 17.0927 13.6804 17.489 12.7664C17.8852 11.8524 18.0892 10.8727 18.0892 9.88339C18.0892 7.88534 17.2584 5.96913 15.7796 4.5563C14.3008 3.14347 12.2951 2.34975 10.2038 2.34975C8.11243 2.34975 6.10675 3.14347 4.62794 4.5563C3.14914 5.96913 2.31836 7.88534 2.31836 9.88339V9.88339Z" stroke="#4C56CC" stroke-width="3.1544" stroke-linecap="round" stroke-linejoin="round"/>
</svg>
