<svg width="23" height="27" viewBox="0 0 23 27" fill="none" xmlns="http://www.w3.org/2000/svg">
<path d="M20.6269 10.9626C20.6269 15.7702 11.5149 24.0209 11.5149 24.0209C11.5149 24.0209 2.40283 15.7702 2.40283 10.9626C2.40283 8.65375 3.36285 6.43947 5.07169 4.80686C6.78052 3.17426 9.09821 2.25707 11.5149 2.25707C13.9315 2.25707 16.2492 3.17426 17.9581 4.80686C19.6669 6.43947 20.6269 8.65375 20.6269 10.9626V10.9626Z" stroke="#4C56CC" stroke-width="3.1544"/>
<path d="M11.515 12.0508C11.8171 12.0508 12.1068 11.9362 12.3204 11.7321C12.534 11.528 12.654 11.2512 12.654 10.9626C12.654 10.674 12.534 10.3972 12.3204 10.1932C12.1068 9.98908 11.8171 9.87443 11.515 9.87443C11.2129 9.87443 10.9232 9.98908 10.7096 10.1932C10.496 10.3972 10.376 10.674 10.376 10.9626C10.376 11.2512 10.496 11.528 10.7096 11.7321C10.9232 11.9362 11.2129 12.0508 11.515 12.0508V12.0508Z" fill="white" stroke="#4C56CC" stroke-width="3.1544" stroke-linecap="round" stroke-linejoin="round"/>
</svg>
