<svg width="44" height="40" viewBox="0 0 44 40" fill="none" xmlns="http://www.w3.org/2000/svg">
<path d="M8.20025 0.527344C6.23947 0.527344 4.359 1.30626 2.97252 2.69274C1.58604 4.07922 0.807129 5.95968 0.807129 7.92046V25.9925C0.807129 27.9533 1.58604 29.8338 2.97252 31.2203C4.359 32.6067 6.23947 33.3856 8.20025 33.3856H29.5581C31.5189 33.3856 33.3994 32.6067 34.7859 31.2203C36.1723 29.8338 36.9513 27.9533 36.9513 25.9925V7.92046C36.9513 5.95968 36.1723 4.07922 34.7859 2.69274C33.3994 1.30626 31.5189 0.527344 29.5581 0.527344H8.20025ZM13.9504 23.515V10.398C13.9502 10.1003 14.0309 9.80811 14.1838 9.55269C14.3367 9.29727 14.5562 9.0882 14.8187 8.94783C15.0812 8.80746 15.3769 8.74105 15.6743 8.75571C15.9716 8.77037 16.2594 8.86555 16.5068 9.03107L26.3545 15.5896C26.5802 15.7395 26.7653 15.9429 26.8933 16.1817C27.0214 16.4205 27.0884 16.6872 27.0884 16.9581C27.0884 17.2291 27.0214 17.4958 26.8933 17.7346C26.7653 17.9734 26.5802 18.1768 26.3545 18.3267L16.5035 24.8852C16.2559 25.05 15.9682 25.1445 15.671 25.1585C15.3739 25.1726 15.0786 25.1057 14.8165 24.9651C14.5544 24.8244 14.3354 24.6152 14.1828 24.3598C14.0303 24.1045 13.95 23.8125 13.9504 23.515ZM13.9504 39.9573C12.675 39.9583 11.4169 39.6619 10.2761 39.0915C9.13528 38.5211 8.14324 37.6925 7.37879 36.6715H31.2011C33.5976 36.6715 35.8959 35.7195 37.5905 34.0249C39.2851 32.3303 40.2371 30.0319 40.2371 27.6354V7.099C42.2316 8.59734 43.5229 10.9829 43.5229 13.6707V27.6354C43.5229 30.9034 42.2247 34.0375 39.9139 36.3483C37.6031 38.6591 34.469 39.9573 31.2011 39.9573H13.9504Z" fill="#4C56CC"/>
</svg>
