<svg width="53" height="53" viewBox="0 0 53 53" fill="none" xmlns="http://www.w3.org/2000/svg">
<mask id="mask0_130_421" style="mask-type:alpha" maskUnits="userSpaceOnUse" x="2" y="6" width="49" height="42">
<path d="M25.1911 43.8112H7.66669C6.79523 43.8112 5.95947 43.465 5.34326 42.8488C4.72704 42.2326 4.38086 41.3968 4.38086 40.5254V12.0482C4.38086 11.1767 4.72704 10.3409 5.34326 9.72473C5.95947 9.10851 6.79523 8.76233 7.66669 8.76233H44.9061C45.7775 8.76233 46.6133 9.10851 47.2295 9.72473C47.8457 10.3409 48.1919 11.1767 48.1919 12.0482V28.3481" stroke="white" stroke-width="4.38111" stroke-linecap="round" stroke-linejoin="round"/>
<path d="M4.38086 12.0482C4.38086 11.1767 4.72704 10.3409 5.34326 9.72473C5.95947 9.10851 6.79523 8.76233 7.66669 8.76233H44.9061C45.7775 8.76233 46.6133 9.10851 47.2295 9.72473C47.8457 10.3409 48.1919 11.1767 48.1919 12.0482V21.9056H4.38086V12.0482Z" fill="white" stroke="white" stroke-width="4.38111"/>
<path d="M43.8107 36.144L48.1918 40.5251L43.8107 44.9063M37.239 36.144L32.8579 40.5251L37.239 44.9063V36.144Z" stroke="white" stroke-width="4.38111" stroke-linecap="round" stroke-linejoin="round"/>
<path d="M8.76196 15.3339C8.76196 14.1241 9.7427 13.1434 10.9525 13.1434C12.1623 13.1434 13.1431 14.1241 13.1431 15.3339C13.1431 16.5437 12.1623 17.5245 10.9525 17.5245C9.7427 17.5245 8.76196 16.5437 8.76196 15.3339Z" fill="black"/>
<path d="M15.3337 15.3339C15.3337 14.1241 16.3145 13.1434 17.5243 13.1434C18.7341 13.1434 19.7148 14.1241 19.7148 15.3339C19.7148 16.5437 18.7341 17.5245 17.5243 17.5245C16.3145 17.5245 15.3337 16.5437 15.3337 15.3339Z" fill="black"/>
</mask>
<g mask="url(#mask0_130_421)">
<path d="M0 0H52.5733V52.5733H0V0Z" fill="#4C56CC"/>
</g>
</svg>
