<svg width="24" height="25" viewBox="0 0 24 25" fill="none" xmlns="http://www.w3.org/2000/svg">
<path d="M21.5545 10.1217C21.5545 14.5589 11.9847 22.1739 11.9847 22.1739C11.9847 22.1739 2.41504 14.5589 2.41504 10.1217C2.41504 7.99077 3.42327 5.94709 5.21794 4.44028C7.01261 2.93346 9.4467 2.08694 11.9847 2.08694C14.5228 2.08694 16.9569 2.93346 18.7516 4.44028C20.5462 5.94709 21.5545 7.99077 21.5545 10.1217V10.1217Z" stroke="#333D6B" stroke-width="3.1544"/>
<path d="M11.9848 11.1261C12.302 11.1261 12.6063 11.0203 12.8306 10.8319C13.055 10.6435 13.181 10.3881 13.181 10.1217C13.181 9.85535 13.055 9.59989 12.8306 9.41154C12.6063 9.22319 12.302 9.11737 11.9848 9.11737C11.6675 9.11737 11.3633 9.22319 11.1389 9.41154C10.9146 9.59989 10.7886 9.85535 10.7886 10.1217C10.7886 10.3881 10.9146 10.6435 11.1389 10.8319C11.3633 11.0203 11.6675 11.1261 11.9848 11.1261Z" fill="white" stroke="#333D6B" stroke-width="3.1544" stroke-linecap="round" stroke-linejoin="round"/>
</svg>
