<svg width="124" height="19" viewBox="0 0 124 19" fill="none" xmlns="http://www.w3.org/2000/svg">
<path d="M12.134 7.56834C12.134 8.46301 11.9287 9.28434 11.518 10.0323C11.1073 10.7657 10.4767 11.3597 9.626 11.8143C8.77533 12.269 7.71933 12.4963 6.458 12.4963H4.126V18.0403H0.364V2.59634H6.458C7.69 2.59634 8.73133 2.80901 9.582 3.23434C10.4327 3.65968 11.0707 4.24634 11.496 4.99434C11.9213 5.74234 12.134 6.60034 12.134 7.56834ZM6.172 9.50434C6.89067 9.50434 7.426 9.33568 7.778 8.99834C8.13 8.66101 8.306 8.18434 8.306 7.56834C8.306 6.95234 8.13 6.47568 7.778 6.13834C7.426 5.80101 6.89067 5.63234 6.172 5.63234H4.126V9.50434H6.172ZM13.3445 11.8803C13.3445 10.619 13.5792 9.51168 14.0485 8.55834C14.5325 7.60501 15.1852 6.87168 16.0065 6.35834C16.8278 5.84501 17.7445 5.58834 18.7565 5.58834C19.6218 5.58834 20.3772 5.76434 21.0225 6.11634C21.6825 6.46834 22.1885 6.93034 22.5405 7.50234V5.76434H26.3025V18.0403H22.5405V16.3023C22.1738 16.8743 21.6605 17.3363 21.0005 17.6883C20.3552 18.0403 19.5998 18.2163 18.7345 18.2163C17.7372 18.2163 16.8278 17.9597 16.0065 17.4463C15.1852 16.9183 14.5325 16.1777 14.0485 15.2243C13.5792 14.2563 13.3445 13.1417 13.3445 11.8803ZM22.5405 11.9023C22.5405 10.9637 22.2765 10.223 21.7485 9.68034C21.2352 9.13768 20.6045 8.86634 19.8565 8.86634C19.1085 8.86634 18.4705 9.13768 17.9425 9.68034C17.4292 10.2083 17.1725 10.9417 17.1725 11.8803C17.1725 12.819 17.4292 13.567 17.9425 14.1243C18.4705 14.667 19.1085 14.9383 19.8565 14.9383C20.6045 14.9383 21.2352 14.667 21.7485 14.1243C22.2765 13.5817 22.5405 12.841 22.5405 11.9023ZM32.7862 7.81034C33.2262 7.13568 33.7762 6.60768 34.4362 6.22634C35.0962 5.83034 35.8295 5.63234 36.6362 5.63234V9.61434H35.6022C34.6635 9.61434 33.9595 9.81968 33.4902 10.2303C33.0208 10.6263 32.7862 11.3303 32.7862 12.3423V18.0403H29.0242V5.76434H32.7862V7.81034ZM45.2763 14.8503V18.0403H43.3623C41.9983 18.0403 40.935 17.7103 40.1723 17.0503C39.4096 16.3757 39.0283 15.283 39.0283 13.7723V8.88834H37.5323V5.76434H39.0283V2.77234H42.7903V5.76434H45.2543V8.88834H42.7903V13.8163C42.7903 14.183 42.8783 14.447 43.0543 14.6083C43.2303 14.7697 43.5236 14.8503 43.9343 14.8503H45.2763Z" fill="black"/>
<path d="M58.4818 2.59634V5.61034H54.3898V18.0403H50.6278V5.61034H46.5358V2.59634H58.4818ZM62.2619 4.48834C61.6019 4.48834 61.0592 4.29768 60.6339 3.91634C60.2232 3.52034 60.0179 3.03634 60.0179 2.46434C60.0179 1.87768 60.2232 1.39368 60.6339 1.01234C61.0592 0.616343 61.6019 0.418343 62.2619 0.418343C62.9072 0.418343 63.4352 0.616343 63.8459 1.01234C64.2712 1.39368 64.4839 1.87768 64.4839 2.46434C64.4839 3.03634 64.2712 3.52034 63.8459 3.91634C63.4352 4.29768 62.9072 4.48834 62.2619 4.48834ZM64.1319 5.76434V18.0403H60.3699V5.76434H64.1319ZM82.5221 5.63234C84.0475 5.63234 85.2575 6.09434 86.1521 7.01834C87.0615 7.94234 87.5161 9.22568 87.5161 10.8683V18.0403H83.7761V11.3743C83.7761 10.5823 83.5635 9.97368 83.1381 9.54834C82.7275 9.10834 82.1555 8.88834 81.4221 8.88834C80.6888 8.88834 80.1095 9.10834 79.6841 9.54834C79.2735 9.97368 79.0681 10.5823 79.0681 11.3743V18.0403H75.3281V11.3743C75.3281 10.5823 75.1155 9.97368 74.6901 9.54834C74.2795 9.10834 73.7075 8.88834 72.9741 8.88834C72.2408 8.88834 71.6615 9.10834 71.2361 9.54834C70.8255 9.97368 70.6201 10.5823 70.6201 11.3743V18.0403H66.8581V5.76434H70.6201V7.30434C71.0015 6.79101 71.5001 6.38768 72.1161 6.09434C72.7321 5.78634 73.4288 5.63234 74.2061 5.63234C75.1301 5.63234 75.9515 5.83034 76.6701 6.22634C77.4035 6.62234 77.9755 7.18701 78.3861 7.92034C78.8115 7.24568 79.3908 6.69568 80.1241 6.27034C80.8575 5.84501 81.6568 5.63234 82.5221 5.63234ZM101.719 11.7043C101.719 12.0563 101.697 12.423 101.653 12.8043H93.1392C93.1979 13.567 93.4399 14.1537 93.8652 14.5643C94.3052 14.9603 94.8405 15.1583 95.4712 15.1583C96.4099 15.1583 97.0625 14.7623 97.4292 13.9703H101.433C101.228 14.777 100.854 15.503 100.311 16.1483C99.7832 16.7937 99.1159 17.2997 98.3092 17.6663C97.5025 18.033 96.6005 18.2163 95.6032 18.2163C94.4005 18.2163 93.3299 17.9597 92.3912 17.4463C91.4525 16.933 90.7192 16.1997 90.1912 15.2463C89.6632 14.293 89.3992 13.1783 89.3992 11.9023C89.3992 10.6263 89.6559 9.51168 90.1692 8.55834C90.6972 7.60501 91.4305 6.87168 92.3692 6.35834C93.3079 5.84501 94.3859 5.58834 95.6032 5.58834C96.7912 5.58834 97.8472 5.83768 98.7712 6.33634C99.6952 6.83501 100.414 7.54634 100.927 8.47034C101.455 9.39434 101.719 10.4723 101.719 11.7043ZM97.8692 10.7143C97.8692 10.069 97.6492 9.55568 97.2092 9.17434C96.7692 8.79301 96.2192 8.60234 95.5592 8.60234C94.9285 8.60234 94.3932 8.78568 93.9532 9.15234C93.5279 9.51901 93.2639 10.0397 93.1612 10.7143H97.8692ZM107.466 7.81034C107.906 7.13568 108.456 6.60768 109.116 6.22634C109.776 5.83034 110.509 5.63234 111.316 5.63234V9.61434H110.282C109.343 9.61434 108.639 9.81968 108.17 10.2303C107.701 10.6263 107.466 11.3303 107.466 12.3423V18.0403H103.704V5.76434H107.466V7.81034ZM118.108 18.2163C117.037 18.2163 116.084 18.033 115.248 17.6663C114.412 17.2997 113.752 16.801 113.268 16.1703C112.784 15.525 112.513 14.8063 112.454 14.0143H116.172C116.216 14.4397 116.414 14.7843 116.766 15.0483C117.118 15.3123 117.551 15.4443 118.064 15.4443C118.533 15.4443 118.893 15.3563 119.142 15.1803C119.406 14.9897 119.538 14.7477 119.538 14.4543C119.538 14.1023 119.355 13.8457 118.988 13.6843C118.621 13.5083 118.027 13.3177 117.206 13.1123C116.326 12.907 115.593 12.6943 115.006 12.4743C114.419 12.2397 113.913 11.8803 113.488 11.3963C113.063 10.8977 112.85 10.2303 112.85 9.39434C112.85 8.69034 113.041 8.05234 113.422 7.48034C113.818 6.89368 114.39 6.43168 115.138 6.09434C115.901 5.75701 116.803 5.58834 117.844 5.58834C119.384 5.58834 120.594 5.96968 121.474 6.73234C122.369 7.49501 122.882 8.50701 123.014 9.76834H119.538C119.479 9.34301 119.289 9.00568 118.966 8.75634C118.658 8.50701 118.247 8.38234 117.734 8.38234C117.294 8.38234 116.957 8.47034 116.722 8.64634C116.487 8.80768 116.37 9.03501 116.37 9.32834C116.37 9.68034 116.553 9.94434 116.92 10.1203C117.301 10.2963 117.888 10.4723 118.68 10.6483C119.589 10.883 120.33 11.1177 120.902 11.3523C121.474 11.5723 121.973 11.939 122.398 12.4523C122.838 12.951 123.065 13.6257 123.08 14.4763C123.08 15.195 122.875 15.8403 122.464 16.4123C122.068 16.9697 121.489 17.4097 120.726 17.7323C119.978 18.055 119.105 18.2163 118.108 18.2163Z" fill="#4C56CC"/>
</svg>
