<svg width="40" height="25" viewBox="0 0 40 25" fill="none" xmlns="http://www.w3.org/2000/svg">
<path d="M18.6812 8.51046C18.6812 9.91923 18.3579 11.2125 17.7112 12.3904C17.0646 13.5451 16.0715 14.4804 14.732 15.1963C13.3925 15.9123 11.7297 16.2702 9.7436 16.2702H6.07156V25H0.147797V0.681391H9.7436C11.6835 0.681391 13.3233 1.01626 14.6628 1.68601C16.0022 2.35575 17.0069 3.27953 17.6766 4.45736C18.3463 5.63518 18.6812 6.98622 18.6812 8.51046ZM9.29326 11.5589C10.4249 11.5589 11.2678 11.2934 11.8221 10.7622C12.3764 10.231 12.6535 9.48043 12.6535 8.51046C12.6535 7.54049 12.3764 6.78991 11.8221 6.25874C11.2678 5.72756 10.4249 5.46197 9.29326 5.46197H6.07156V11.5589H9.29326ZM39.6057 0.681391V5.42733H33.1623V25H27.2386V5.42733H20.7952V0.681391H39.6057Z" fill="#4C56CC"/>
</svg>
