<svg width="23" height="22" viewBox="0 0 23 22" fill="none" xmlns="http://www.w3.org/2000/svg">
<path d="M16.25 15.5L21 20M2 9.71429C2 10.7273 2.21062 11.7305 2.61984 12.6664C3.02905 13.6024 3.62885 14.4528 4.38499 15.1691C5.14112 15.8854 6.03878 16.4537 7.02672 16.8414C8.01466 17.229 9.07352 17.4286 10.1429 17.4286C11.2122 17.4286 12.2711 17.229 13.259 16.8414C14.2469 16.4537 15.1446 15.8854 15.9007 15.1691C16.6569 14.4528 17.2567 13.6024 17.6659 12.6664C18.0751 11.7305 18.2857 10.7273 18.2857 9.71429C18.2857 7.66833 17.4278 5.70617 15.9007 4.25946C14.3736 2.81275 12.3025 2 10.1429 2C7.98324 2 5.91207 2.81275 4.38499 4.25946C2.85791 5.70617 2 7.66833 2 9.71429Z" stroke="#333D6B" stroke-width="3.1544" stroke-linecap="round" stroke-linejoin="round"/>
</svg>
