<svg width="1180" height="1040" viewBox="0 0 1180 1040" fill="none" xmlns="http://www.w3.org/2000/svg">
<path d="M298.854 892.456C157.563 793.706 30.8721 573.565 164.354 449.655C288.114 334.77 352.518 462.033 495.79 388.819C639.063 315.604 568.368 103.785 731.87 52.0696C826.771 22.0526 942.56 70.3901 1003.8 180.893C1065.04 291.397 1071.74 464.066 948.449 682.711C831.989 889.248 690.111 956.026 567.087 963.999C444.063 971.973 339.895 921.14 298.854 892.456Z" stroke="white" stroke-opacity="0.4" stroke-width="2.10293" stroke-miterlimit="10"/>
<path d="M931.542 682.593C825.016 872.179 694.979 934.335 581.75 942.282C469.258 950.001 373.655 904.155 334.952 877.727C203.522 787.374 85.3862 584.441 204.918 467.529C315.287 359.579 374.989 471.071 506.348 402.762C510.081 400.805 513.662 398.751 517.102 396.606C610.297 338.538 598.273 212.75 660.891 140.046C677.89 120.31 700.302 104.384 731.668 94.8629C821.892 67.4772 928.787 113.076 984.742 215.587C1040.85 318.667 1045.42 479.497 931.542 682.593Z" stroke="white" stroke-opacity="0.4" stroke-width="2.10293" stroke-miterlimit="10"/>
<path d="M914.635 682.474C818.042 855.109 699.848 912.645 596.413 920.564C494.453 928.03 407.332 887.286 371.051 862.999C249.197 781.429 139.895 595.352 245.483 485.403C342.461 384.42 397.691 480.507 516.906 416.704C520.342 414.865 523.631 412.919 526.804 410.904C612.53 356.58 605.696 243.026 665.246 178.065C681.506 160.327 702.54 146.019 731.468 137.656C817.03 112.918 915.016 155.761 965.685 250.282C1016.66 345.936 1019.11 494.926 914.635 682.474Z" stroke="white" stroke-opacity="0.4" stroke-width="2.10293" stroke-miterlimit="10"/>
<path d="M897.728 682.357C811.068 838.04 704.739 891.207 611.075 898.848C519.67 906.305 441.059 870.354 407.15 848.271C295.046 775.264 194.399 606.311 286.047 503.279C369.636 409.307 420.268 489.713 527.464 430.647C530.599 428.919 533.601 427.087 536.504 425.203C614.761 374.623 613.144 273.307 669.599 216.084C685.127 200.345 704.785 187.67 731.267 180.449C812.187 158.384 901.243 198.447 946.626 284.976C992.475 373.207 992.792 510.358 897.728 682.357Z" stroke="white" stroke-opacity="0.4" stroke-width="2.10293" stroke-miterlimit="10"/>
<path d="M880.82 682.239C804.395 821.124 709.616 869.589 625.737 877.131C544.872 884.401 474.791 853.416 443.247 833.543C340.919 769.072 248.903 617.332 326.61 521.154C396.821 434.253 442.832 498.888 538.02 444.59C540.854 442.973 543.568 441.255 546.204 439.502C616.99 392.665 620.624 303.594 673.95 254.103C688.755 240.363 707.037 229.339 731.063 223.242C807.366 203.882 887.679 241.034 927.565 319.671C968.503 400.376 966.816 525.96 880.82 682.239Z" stroke="white" stroke-opacity="0.4" stroke-width="2.10293" stroke-miterlimit="10"/>
<path d="M863.912 682.121C797.47 804.078 714.495 847.964 640.399 855.415C570.075 862.487 508.532 836.471 479.346 818.815C386.825 762.845 303.426 628.439 367.175 539.029C424.034 459.28 465.384 508.025 548.578 458.533C551.112 457.025 553.538 455.422 555.906 453.801C619.223 410.707 628.148 333.896 678.305 292.122C692.398 280.385 709.302 271.03 730.863 266.036C802.573 249.426 873.942 283.708 908.508 354.366C944.351 427.634 940.566 541.422 863.912 682.121Z" stroke="white" stroke-opacity="0.4" stroke-width="2.10293" stroke-miterlimit="10"/>
<path d="M847.005 682.003C790.525 787.021 719.375 826.322 655.062 833.697C595.28 840.553 542.285 819.513 515.444 804.086C432.772 756.572 357.999 639.664 407.74 556.903C451.307 484.414 487.914 517.11 559.137 472.476C561.369 471.077 563.507 469.591 565.608 468.1C621.454 428.75 635.726 364.227 682.659 330.141C696.054 320.413 711.577 312.749 730.662 308.829C797.811 295.038 860.19 326.389 889.449 389.06C920.187 454.899 914.3 556.873 847.005 682.003Z" stroke="white" stroke-opacity="0.4" stroke-width="2.10293" stroke-miterlimit="10"/>
<path d="M830.098 681.884C783.554 769.95 724.257 804.656 669.724 811.98C620.485 818.594 576.052 802.536 551.543 789.358C478.77 750.231 408.457 649.085 448.303 574.778C482.313 511.356 510.405 526.124 569.694 486.418C571.624 485.125 573.475 483.759 575.31 482.398C623.687 446.791 643.369 394.608 687.014 368.159C699.728 360.453 713.864 354.502 730.462 351.622C793.084 340.752 846.421 369.081 870.391 423.754C896.004 482.174 888.009 572.312 830.098 681.884Z" stroke="white" stroke-opacity="0.4" stroke-width="2.10293" stroke-miterlimit="10"/>
<path d="M813.19 681.768C776.54 752.859 729.137 782.949 684.386 790.264C645.686 796.591 609.84 785.529 587.641 774.631C524.828 743.794 467.648 662.587 488.868 592.654C506.327 535.111 532.835 535.041 580.252 500.361C581.877 499.173 583.444 497.927 585.01 496.697C625.918 464.835 651.078 425.082 691.367 406.179C703.421 400.523 716.158 396.304 730.26 394.416C788.39 386.634 832.62 411.787 851.333 458.45C871.791 509.464 861.672 587.727 813.19 681.768Z" stroke="white" stroke-opacity="0.4" stroke-width="2.10293" stroke-miterlimit="10"/>
<path d="M796.283 681.649C769.459 735.734 734.003 761.152 699.049 768.548C670.875 774.508 643.654 768.466 623.739 759.903C570.958 737.208 523.13 674.212 529.432 610.528C534.374 560.595 555.15 543.819 590.81 514.304C592.127 513.214 593.413 512.095 594.712 510.996C628.149 482.877 658.836 455.706 695.72 444.198C707.13 440.638 718.457 438.163 730.059 437.209C783.72 432.794 818.77 454.509 832.274 493.144C847.523 536.772 835.243 603.098 796.283 681.649Z" stroke="white" stroke-opacity="0.4" stroke-width="2.10293" stroke-miterlimit="10"/>
<path d="M569.996 628.403C562.686 584.05 578.446 549.67 604.414 525.295C630.381 500.919 666.555 486.549 700.075 482.217C768.85 473.327 803.282 491.577 813.216 527.838C823.151 564.1 808.589 618.373 779.377 681.531C750.165 744.688 702.528 759.965 659.839 745.174C617.15 730.383 579.411 685.522 569.996 628.403Z" stroke="white" stroke-opacity="0.4" stroke-width="2.10293" stroke-miterlimit="10"/>
</svg>
